HIERARCHY
ROOT Hips
{
	OFFSET -0.001795 -0.223333 0.028219
	CHANNELS 6 Xposition Yposition Zposition Zrotation Yrotation Xrotation 
	JOINT LeftUpLeg
	{
		OFFSET 0.069520 -0.091406 -0.006815
		CHANNELS 3 Zrotation Yrotation Xrotation
		JOINT LeftLeg
		{
			OFFSET 0.034277 -0.375199 -0.004496
			CHANNELS 3 Zrotation Yrotation Xrotation
			JOINT LeftFoot
			{
				OFFSET -0.013596 -0.397961 -0.043693
				CHANNELS 3 Zrotation Yrotation Xrotation
				JOINT LeftToe
				{
					OFFSET 0.026358 -0.055791 0.119288
					CHANNELS 3 Zrotation Yrotation Xrotation
					End Site
					{
						OFFSET 0.000000 0.000000 0.000000
					}
				}
			}
		}
	}
	JOINT RightUpLeg
	{
		OFFSET -0.067670 -0.090522 -0.004320
		CHANNELS 3 Zrotation Yrotation Xrotation
		JOINT RightLeg
		{
			OFFSET -0.038290 -0.382569 -0.008850
			CHANNELS 3 Zrotation Yrotation Xrotation
			JOINT RightFoot
			{
				OFFSET 0.015774 -0.398415 -0.042312
				CHANNELS 3 Zrotation Yrotation Xrotation
				JOINT RightToe
				{
					OFFSET -0.025372 -0.048144 0.123348
					CHANNELS 3 Zrotation Yrotation Xrotation
					End Site
					{
						OFFSET 0.000000 0.000000 0.000000
					}
				}
			}
		}
	}
	JOINT Spine
	{
		OFFSET -0.002533 0.108963 -0.026696
		CHANNELS 3 Zrotation Yrotation Xrotation
		JOINT Spine1
		{
			OFFSET 0.005487 0.135180 0.001092
			CHANNELS 3 Zrotation Yrotation Xrotation
			JOINT Spine2
			{
				OFFSET 0.001457 0.052922 0.025425
				CHANNELS 3 Zrotation Yrotation Xrotation
				JOINT Neck
				{
					OFFSET -0.002778 0.213870 -0.042857
					CHANNELS 3 Zrotation Yrotation Xrotation
					JOINT Head
					{
						OFFSET 0.005152 0.064970 0.051349
						CHANNELS 3 Zrotation Yrotation Xrotation
						End Site
						{
							OFFSET 0.000000 0.000000 0.000000
						}
					}
				}
				JOINT LeftShoulder
				{
					OFFSET 0.078845 0.121749 -0.034090
					CHANNELS 3 Zrotation Yrotation Xrotation
					JOINT LeftArm
					{
						OFFSET 0.090977 0.030469 -0.008868
						CHANNELS 3 Zrotation Yrotation Xrotation
						JOINT LeftForeArm
						{
							OFFSET 0.259612 -0.012772 -0.027456
							CHANNELS 3 Zrotation Yrotation Xrotation
							JOINT LeftHand
							{
								OFFSET 0.249234 0.008986 -0.001171
								CHANNELS 3 Zrotation Yrotation Xrotation
								End Site
								{
									OFFSET 0.000000 0.000000 0.000000
								}
							}
						}
					}
				}
				JOINT RightShoulder
				{
					OFFSET -0.081759 0.118833 -0.038615
					CHANNELS 3 Zrotation Yrotation Xrotation
					JOINT RightArm
					{
						OFFSET -0.096012 0.032551 -0.009143
						CHANNELS 3 Zrotation Yrotation Xrotation
						JOINT RightForeArm
						{
							OFFSET -0.253742 -0.013329 -0.021401
							CHANNELS 3 Zrotation Yrotation Xrotation
							JOINT RightHand
							{
								OFFSET -0.255298 0.007772 -0.005559
								CHANNELS 3 Zrotation Yrotation Xrotation
								End Site
								{
									OFFSET 0.000000 0.000000 0.000000
								}
							}
						}
					}
				}
			}
		}
	}
}
MOTION
Frames: 7
Frame Time: 0.050000
0.026091 0.738245 -0.099495 -0.984931 6.107700 31.114177 15.274381 0.697712 -81.885510 -24.839852 18.331057 68.500023 17.810271 41.236085 -11.573762 0.000000 0.000000 0.000000 -6.286112 0.766023 -85.233987 8.269662 -5.836568 80.848654 -12.624378 -32.993992 -7.590858 0.000000 0.000000 0.000000 -4.454823 -2.177634 60.402945 4.519297 0.341040 -33.103837 3.417174 -0.680292 23.955111 -2.200848 2.983203 -45.858908 0.000000 0.000000 0.000000 -21.773246 -8.640478 3.694108 -44.459051 -12.682275 -2.107342 0.015463 -56.292733 3.249982 0.000000 0.000000 0.000000 10.766073 8.625926 3.862912 52.138852 1.042919 -5.545166 29.290640 75.176151 27.386835 0.000000 0.000000 0.000000 
0.036271 0.739085 -0.053002 -0.618536 7.039881 31.014302 13.529701 -1.241154 -80.042546 -23.647752 17.805219 71.720917 17.735493 40.783613 -11.510626 0.000000 0.000000 0.000000 -6.205052 0.248384 -82.979974 7.970860 -6.250688 84.382930 -12.053525 -31.535963 -8.570590 0.000000 0.000000 0.000000 -4.348012 -2.410595 58.115891 4.861882 0.248644 -32.241190 3.108514 -0.699000 24.367098 -1.612876 2.865908 -45.953261 0.000000 0.000000 0.000000 -22.255401 -9.327816 3.992449 -44.427845 -12.947277 -2.061113 -0.736031 -56.216519 3.578699 0.000000 0.000000 0.000000 10.821484 10.133217 4.717884 53.631872 1.958761 -5.357157 19.444711 72.571523 18.926156 0.000000 0.000000 0.000000 
0.047016 0.746257 -0.001004 -0.083845 8.535172 30.976037 11.078027 -3.713575 -76.749939 -22.481316 16.216079 72.666371 17.208071 40.871936 -13.780501 0.000000 0.000000 0.000000 -6.012688 -0.369648 -79.063398 6.381604 -5.495587 87.581810 -11.212496 -28.312790 -5.807226 0.000000 0.000000 0.000000 -4.452871 -2.575987 55.445001 6.443507 0.106294 -32.622951 3.195844 -0.086015 25.485152 -2.572301 3.259756 -45.149814 0.000000 0.000000 0.000000 -27.811425 -10.347110 4.191673 -39.994773 -11.461947 -2.436788 -4.078559 -55.054455 4.936271 0.000000 0.000000 0.000000 12.801834 10.799878 5.512529 53.189173 2.569512 -5.254729 11.991206 68.196566 12.714337 0.000000 0.000000 0.000000 
0.058780 0.757584 0.055614 0.126226 10.384265 30.654609 8.664873 -5.894233 -72.831950 -20.332059 13.781101 75.185315 17.642495 39.947936 -10.159213 0.000000 0.000000 0.000000 -5.917199 -1.220165 -76.601162 5.271747 -5.218909 90.070291 -10.550576 -25.565289 -0.287460 0.000000 0.000000 0.000000 -4.166829 -2.901944 51.672686 7.258477 -0.030425 -32.203733 2.782495 -0.978716 26.911856 -1.662271 2.998563 -44.482798 0.000000 0.000000 0.000000 -29.410940 -9.570169 3.601025 -38.659366 -10.728803 -2.755086 -6.619049 -55.425344 6.261295 0.000000 0.000000 0.000000 14.552211 11.766918 6.233872 52.073236 2.497077 -5.460602 7.790876 65.068359 9.259806 0.000000 0.000000 0.000000 
0.071028 0.772685 0.117287 0.009519 12.462522 29.395163 5.432987 -7.642897 -66.059235 -17.691474 9.897012 76.109234 18.254466 39.277627 -5.565703 0.000000 0.000000 0.000000 -5.854943 -2.175338 -75.770374 6.115990 -7.008059 90.135710 -9.516419 -23.051336 0.726278 0.000000 0.000000 0.000000 -4.575013 -2.719546 47.913024 10.466797 -0.705022 -29.436499 2.360305 -0.594790 25.736781 -3.465919 3.718299 -44.199950 0.000000 0.000000 0.000000 -31.516006 -9.511342 2.786546 -37.466268 -8.850202 -2.969882 -7.674251 -57.062429 6.782372 0.000000 0.000000 0.000000 17.136981 11.293980 6.555849 49.786284 1.410958 -5.771453 7.579355 60.777526 8.432023 0.000000 0.000000 0.000000 
0.083706 0.790792 0.184377 0.391268 15.220944 29.292876 2.847216 -8.216636 -57.632556 -15.149948 5.313275 73.723970 17.003329 35.533337 -1.178600 0.000000 0.000000 0.000000 -6.044162 -4.003877 -77.164563 7.237526 -8.941747 90.303088 -9.440385 -22.659993 2.771562 0.000000 0.000000 0.000000 -2.725141 -3.708279 43.969748 10.707216 -0.738342 -29.878064 1.399839 -3.686417 27.859245 -3.139955 3.473985 -46.305921 0.000000 0.000000 0.000000 -32.286866 -8.493081 2.830594 -36.214561 -10.140349 -2.981993 -7.862377 -62.417583 7.971397 0.000000 0.000000 0.000000 17.870499 10.993535 6.058477 48.332002 -0.678854 -6.598367 8.347012 60.022827 8.337170 0.000000 0.000000 0.000000 
0.097624 0.814211 0.260495 -0.364137 15.334518 28.672437 1.872364 -6.460761 -47.476426 -11.642275 1.381475 66.185832 14.978508 32.122282 -3.254805 0.000000 0.000000 0.000000 -6.191969 -4.404747 -79.436674 9.633857 -11.085258 88.218357 -9.689228 -23.009133 5.364696 0.000000 0.000000 0.000000 -1.788665 -3.703673 40.973540 12.786869 -1.270751 -28.441826 -0.072696 -5.527837 27.162510 -4.730813 3.771948 -48.643672 0.000000 0.000000 0.000000 -31.644890 -6.139468 1.911381 -37.341330 -11.183633 -2.968015 -5.693058 -69.603243 8.149807 0.000000 0.000000 0.000000 18.306603 10.152125 5.073663 45.356333 -2.749076 -6.803184 12.778993 61.968918 10.770267 0.000000 0.000000 0.000000 
